HIERARCHY
ROOT Hips
{
	OFFSET 0.000000 103.266502 0.000000
	CHANNELS 6 Xposition Yposition Zposition Xrotation Yrotation Zrotation 
	JOINT Spine
	{
		OFFSET -0.002400 12.777504 0.315300
		CHANNELS 3 Xrotation Yrotation Zrotation
		JOINT Spine1
		{
			OFFSET -0.002067 5.816869 0.032633
			CHANNELS 3 Xrotation Yrotation Zrotation
			JOINT Spine1_split
			{
				OFFSET -0.002067 5.816869 0.032633
				CHANNELS 3 Xrotation Yrotation Zrotation
				JOINT Spine2
				{
					OFFSET -0.002067 5.816869 0.032633
					CHANNELS 3 Xrotation Yrotation Zrotation
					JOINT Neck
					{
						OFFSET -0.003700 21.199493 -0.826900
						CHANNELS 3 Xrotation Yrotation Zrotation
						JOINT Head
						{
							OFFSET 0.000000 20.442200 4.834800
							CHANNELS 3 Xrotation Yrotation Zrotation
							JOINT HeadTop_End
							{
								OFFSET 0.000000 34.668396 4.968400
								CHANNELS 3 Xrotation Yrotation Zrotation
								End Site
								{
									OFFSET 0.000000 0.000000 0.000000
								}
							}
						}
					}
					JOINT LeftShoulder
					{
						OFFSET 3.288150 8.794197 -1.372250
						CHANNELS 3 Xrotation Yrotation Zrotation
						JOINT LeftShoulder_split
						{
							OFFSET 3.288150 8.794197 -1.372250
							CHANNELS 3 Xrotation Yrotation Zrotation
							JOINT LeftArm
							{
								OFFSET 11.953299 -2.279007 -0.146200
								CHANNELS 3 Xrotation Yrotation Zrotation
								JOINT LeftForeArm
								{
									OFFSET 18.448900 0.000000 0.000000
									CHANNELS 3 Xrotation Yrotation Zrotation
									JOINT LeftHand
									{
										OFFSET 29.527798 0.000000 0.000000
										CHANNELS 3 Xrotation Yrotation Zrotation
										JOINT LeftHandThumb1
										{
											OFFSET 10.739754 -2.369614 9.225399
											CHANNELS 3 Xrotation Yrotation Zrotation
											JOINT LeftHandThumb2
											{
												OFFSET 4.926170 -2.844131 2.844125
												CHANNELS 3 Xrotation Yrotation Zrotation
												JOINT LeftHandThumb3
												{
													OFFSET 4.614891 -2.664413 2.664409
													CHANNELS 3 Xrotation Yrotation Zrotation
													JOINT LeftHandThumb4
													{
														OFFSET 4.432465 -2.559082 2.559083
														CHANNELS 3 Xrotation Yrotation Zrotation
														End Site
														{
															OFFSET 0.000000 0.000000 0.000000
														}
													}
												}
											}
										}
										JOINT LeftHandIndex1
										{
											OFFSET 26.467674 0.187653 6.405298
											CHANNELS 3 Xrotation Yrotation Zrotation
											JOINT LeftHandIndex2
											{
												OFFSET 8.792900 0.000000 0.000000
												CHANNELS 3 Xrotation Yrotation Zrotation
												JOINT LeftHandIndex3
												{
													OFFSET 10.075203 0.000000 0.000000
													CHANNELS 3 Xrotation Yrotation Zrotation
													End Site
													{
														OFFSET 0.000000 0.000000 0.000000
													}
												}
											}
										}
										JOINT LeftHandMiddle1
										{
											OFFSET 25.764404 0.000000 0.000000
											CHANNELS 3 Xrotation Yrotation Zrotation
											JOINT LeftHandMiddle2
											{
												OFFSET 9.393974 0.000000 0.000000
												CHANNELS 3 Xrotation Yrotation Zrotation
												JOINT LeftHandMiddle3
												{
													OFFSET 10.771950 0.000000 0.000000
													CHANNELS 3 Xrotation Yrotation Zrotation
													End Site
													{
														OFFSET 0.000000 0.000000 0.000000
													}
												}
											}
										}
										JOINT LeftHandRing1
										{
											OFFSET 24.660927 0.144547 -6.225808
											CHANNELS 3 Xrotation Yrotation Zrotation
											JOINT LeftHandRing2
											{
												OFFSET 9.393799 0.000000 0.000000
												CHANNELS 3 Xrotation Yrotation Zrotation
												JOINT LeftHandRing3
												{
													OFFSET 9.928497 0.000000 0.000000
													CHANNELS 3 Xrotation Yrotation Zrotation
													End Site
													{
														OFFSET 0.000000 0.000000 0.000000
													}
												}
											}
										}
										JOINT LeftHandPinky1
										{
											OFFSET 23.655350 0.125290 -12.815412
											CHANNELS 3 Xrotation Yrotation Zrotation
											JOINT LeftHandPinky2
											{
												OFFSET 8.425102 0.000000 0.000000
												CHANNELS 3 Xrotation Yrotation Zrotation
												JOINT LeftHandPinky3
												{
													OFFSET 8.147003 0.000000 0.000000
													CHANNELS 3 Xrotation Yrotation Zrotation
													End Site
													{
														OFFSET 0.000000 0.000000 0.000000
													}
												}
											}
										}
									}
								}
							}
						}
					}
					JOINT RightShoulder
					{
						OFFSET -3.249400 8.794197 -1.372250
						CHANNELS 3 Xrotation Yrotation Zrotation
						JOINT RightShoulder_split
						{
							OFFSET -3.249400 8.794197 -1.372250
							CHANNELS 3 Xrotation Yrotation Zrotation
							JOINT RightArm
							{
								OFFSET -11.953299 -2.279007 -0.146200
								CHANNELS 3 Xrotation Yrotation Zrotation
								JOINT RightForeArm
								{
									OFFSET -18.448900 0.000000 0.000000
									CHANNELS 3 Xrotation Yrotation Zrotation
									JOINT RightHand
									{
										OFFSET -29.527802 0.000000 0.000000
										CHANNELS 3 Xrotation Yrotation Zrotation
										JOINT RightHandThumb1
										{
											OFFSET -10.739754 -2.369614 9.225399
											CHANNELS 3 Xrotation Yrotation Zrotation
											JOINT RightHandThumb2
											{
												OFFSET -4.926170 -2.844131 2.844125
												CHANNELS 3 Xrotation Yrotation Zrotation
												JOINT RightHandThumb3
												{
													OFFSET -4.614891 -2.664413 2.664409
													CHANNELS 3 Xrotation Yrotation Zrotation
													JOINT RightHandThumb4
													{
														OFFSET -4.432465 -2.559082 2.559083
														CHANNELS 3 Xrotation Yrotation Zrotation
														End Site
														{
															OFFSET 0.000000 0.000000 0.000000
														}
													}
												}
											}
										}
										JOINT RightHandIndex1
										{
											OFFSET -26.467674 0.187653 6.405298
											CHANNELS 3 Xrotation Yrotation Zrotation
											JOINT RightHandIndex2
											{
												OFFSET -8.792900 0.000000 0.000000
												CHANNELS 3 Xrotation Yrotation Zrotation
												JOINT RightHandIndex3
												{
													OFFSET -10.075203 0.000000 0.000000
													CHANNELS 3 Xrotation Yrotation Zrotation
													End Site
													{
														OFFSET 0.000000 0.000000 0.000000
													}
												}
											}
										}
										JOINT RightHandMiddle1
										{
											OFFSET -25.764404 0.000000 0.000000
											CHANNELS 3 Xrotation Yrotation Zrotation
											JOINT RightHandMiddle2
											{
												OFFSET -9.393974 0.000000 0.000000
												CHANNELS 3 Xrotation Yrotation Zrotation
												JOINT RightHandMiddle3
												{
													OFFSET -10.771950 0.000000 0.000000
													CHANNELS 3 Xrotation Yrotation Zrotation
													End Site
													{
														OFFSET 0.000000 0.000000 0.000000
													}
												}
											}
										}
										JOINT RightHandRing1
										{
											OFFSET -24.660927 0.144547 -6.225808
											CHANNELS 3 Xrotation Yrotation Zrotation
											JOINT RightHandRing2
											{
												OFFSET -9.393799 0.000000 0.000000
												CHANNELS 3 Xrotation Yrotation Zrotation
												JOINT RightHandRing3
												{
													OFFSET -9.928497 0.000000 0.000000
													CHANNELS 3 Xrotation Yrotation Zrotation
													End Site
													{
														OFFSET 0.000000 0.000000 0.000000
													}
												}
											}
										}
										JOINT RightHandPinky1
										{
											OFFSET -23.655350 0.125290 -12.815412
											CHANNELS 3 Xrotation Yrotation Zrotation
											JOINT RightHandPinky2
											{
												OFFSET -8.425102 0.000000 0.000000
												CHANNELS 3 Xrotation Yrotation Zrotation
												JOINT RightHandPinky3
												{
													OFFSET -8.147003 0.000000 0.000000
													CHANNELS 3 Xrotation Yrotation Zrotation
													End Site
													{
														OFFSET 0.000000 0.000000 0.000000
													}
												}
											}
										}
									}
								}
							}
						}
					}
				}
			}
		}
	}
	JOINT LeftUpLeg
	{
		OFFSET 11.394100 -6.187798 -0.413800
		CHANNELS 3 Xrotation Yrotation Zrotation
		JOINT LeftLeg
		{
			OFFSET 0.430247 -32.302673 3.732800
			CHANNELS 3 Xrotation Yrotation Zrotation
			JOINT LeftFoot
			{
				OFFSET -0.430247 -48.264931 -6.423300
				CHANNELS 3 Xrotation Yrotation Zrotation
				JOINT LeftToeBase
				{
					OFFSET 4.230900 -16.068199 23.438400
					CHANNELS 3 Xrotation Yrotation Zrotation
					JOINT LeftToe_End
					{
						OFFSET 4.510700 0.695400 19.974600
						CHANNELS 3 Xrotation Yrotation Zrotation
						End Site
						{
							OFFSET 0.000000 0.000000 0.000000
						}
					}
				}
			}
		}
	}
	JOINT RightUpLeg
	{
		OFFSET -11.333700 -6.187798 -0.413800
		CHANNELS 3 Xrotation Yrotation Zrotation
		JOINT RightLeg
		{
			OFFSET -0.430392 -32.302628 3.733000
			CHANNELS 3 Xrotation Yrotation Zrotation
			JOINT RightFoot
			{
				OFFSET 0.430392 -48.264973 -6.423500
				CHANNELS 3 Xrotation Yrotation Zrotation
				JOINT RightToeBase
				{
					OFFSET -4.230900 -16.068199 23.438400
					CHANNELS 3 Xrotation Yrotation Zrotation
					JOINT RightToe_End
					{
						OFFSET -4.510700 0.695400 19.974600
						CHANNELS 3 Xrotation Yrotation Zrotation
						End Site
						{
							OFFSET 0.000000 0.000000 0.000000
						}
					}
				}
			}
		}
	}
}
MOTION
Frames: 4
Frame Time: 0.016667
0.014866 96.903694 -0.891594 -24.512378 -2.415830 -1.628418 11.188295 -4.797091 -0.721903 3.545657 -2.400647 -0.151373 0.000000 0.000000 0.000000 3.557022 -2.388380 -0.108336 1.551790 0.634301 -1.308391 -6.938528 0.762143 3.865455 0.000001 -0.000000 -0.000000 0.445075 -15.488171 -11.025445 0.000000 0.000000 0.000000 -20.285392 3.054794 -36.773547 0.000074 -67.201910 0.000066 -41.639978 -11.471771 -7.743327 -22.783302 -14.798033 12.273485 3.104718 10.435618 14.815836 3.249524 44.532635 6.783432 -0.000003 0.000001 0.000000 1.968610 -2.875772 26.071488 3.265027 5.250342 -63.730405 -0.000001 0.000000 0.000001 -0.918319 3.905208 20.820672 2.974875 5.097499 -60.513803 -0.000000 0.000000 -0.000004 -6.190591 13.399336 27.815715 3.764235 5.467493 -69.071927 -0.000001 -0.000000 -0.000000 -10.204752 21.361492 28.797802 0.278413 1.786143 -17.716447 -0.000000 0.000000 0.000001 0.064833 14.691501 14.953769 0.000000 0.000000 0.000000 -12.069991 -6.923744 61.446636 0.000009 39.415441 0.000002 -1.892005 -4.118452 24.314821 -20.073110 16.089479 -24.921359 8.794322 -40.952749 -1.386074 -0.155072 -28.868788 -23.120255 -0.000002 -0.000001 0.000001 1.063113 -5.182547 38.505523 3.100501 -4.389836 70.453032 0.000000 -0.000000 -0.000001 2.946399 -6.593250 70.499867 0.642393 -2.362174 30.423155 -0.000000 0.000003 -0.000002 5.948310 -7.199735 80.598568 0.322681 -1.704974 21.432107 -0.000002 0.000001 0.000000 1.932476 -22.479110 97.263308 1.111354 -3.021275 40.383989 -0.000001 0.000002 0.000002 0.555683 19.300332 11.627965 33.981909 5.256263 -9.692096 -14.315995 29.927676 7.377332 0.271552 0.026018 -0.826436 -0.000000 -0.000000 0.000000 14.845211 -14.646415 -4.000225 31.055323 -10.117375 0.361167 -18.060333 -28.382504 1.744932 0.793732 -0.006583 1.002156 0.000000 -0.000001 -0.000000 
-0.398888 96.844444 -0.654644 -24.533490 -3.349060 -2.138348 11.194456 -4.819136 -0.648615 3.545657 -2.400648 -0.151372 0.000000 0.000000 0.000000 3.557021 -2.388382 -0.108336 1.569038 0.632566 -1.281187 -6.886420 0.740096 3.939075 -0.000001 -0.000000 -0.000000 0.453286 -15.502117 -10.972481 0.000000 0.000000 0.000000 -20.293312 3.094331 -36.833626 0.000040 -67.199322 0.000043 -41.623692 -11.480584 -7.750261 -22.783302 -14.798033 12.273485 3.108321 10.435743 14.812915 3.243425 44.532058 6.788115 -0.000001 0.000001 0.000000 1.972010 -2.886991 26.060457 3.263308 5.249496 -63.711704 -0.000000 -0.000000 -0.000001 -0.911527 3.888561 20.812160 2.975749 5.097966 -60.523590 -0.000001 -0.000001 -0.000008 -6.204499 13.442056 27.794072 3.753694 5.463467 -68.961162 -0.000000 -0.000001 0.000003 -10.221021 21.393286 28.797334 0.277966 1.784780 -17.702288 0.000000 0.000001 0.000000 0.059575 14.649712 15.003829 0.000000 0.000000 0.000000 -12.024884 -6.807492 61.377637 0.000014 39.437020 -0.000008 -1.973408 -4.141927 24.291503 -20.073111 16.089477 -24.921359 8.794318 -40.952756 -1.386077 -0.157771 -28.865862 -23.124504 0.000001 -0.000002 -0.000002 1.073336 -5.197514 38.626099 3.094975 -4.387890 70.380776 0.000002 -0.000001 0.000000 2.960347 -6.598243 70.519736 0.642416 -2.362204 30.423582 0.000003 -0.000000 0.000000 5.942373 -7.197746 80.626695 0.322953 -1.705691 21.441509 0.000002 -0.000001 -0.000002 1.935733 -22.481209 97.290225 1.111358 -3.021277 40.383982 0.000001 -0.000002 -0.000001 -0.998995 19.490667 12.959369 36.190492 5.364040 -9.668390 -13.670131 29.915542 6.812597 -0.073356 0.057859 -1.491403 0.000000 0.000002 -0.000000 14.962101 -14.332464 -3.705106 31.124854 -9.928059 0.458765 -18.456206 -27.850472 1.412697 0.811153 -0.006888 1.023922 0.000000 0.000000 0.000000 
-0.785611 96.776421 -0.445972 -24.561538 -4.284141 -2.660983 11.201463 -4.843657 -0.565603 3.545658 -2.400646 -0.151372 0.000000 0.000000 0.000000 3.557022 -2.388383 -0.108336 1.594337 0.627995 -1.252939 -6.802727 0.692379 4.007737 -0.000001 -0.000000 -0.000000 0.460828 -15.508025 -10.923491 0.000000 0.000000 0.000000 -20.284318 3.109529 -36.878920 0.000048 -67.192881 0.000052 -41.627046 -11.498699 -7.746709 -22.783300 -14.798035 12.273482 3.113752 10.435892 14.808477 3.241942 44.531911 6.788997 -0.000000 0.000001 0.000000 1.969714 -2.895174 26.045152 3.259425 5.247586 -63.669050 -0.000001 0.000000 -0.000001 -0.905924 3.873774 20.810149 2.976647 5.098478 -60.533624 0.000001 0.000001 0.000001 -6.207487 13.459991 27.775147 3.749424 5.461812 -68.916233 0.000000 -0.000000 0.000003 -10.231284 21.412769 28.801412 0.278421 1.786169 -17.716677 -0.000001 0.000001 -0.000000 0.056287 14.633617 15.032350 0.000000 0.000000 0.000000 -11.965736 -6.692802 61.317142 -0.000027 39.454058 0.000036 -2.087402 -4.155317 24.254596 -20.073110 16.089475 -24.921361 8.794318 -40.952756 -1.386080 -0.175243 -28.846863 -23.151869 -0.000002 -0.000002 -0.000001 1.083626 -5.208386 38.767935 3.091854 -4.386774 70.339972 0.000002 0.000001 -0.000001 2.965370 -6.600089 70.543601 0.642270 -2.361961 30.420126 -0.000000 -0.000000 -0.000001 5.939520 -7.195791 80.668660 0.323125 -1.706111 21.447071 -0.000001 -0.000000 0.000000 1.933396 -22.482328 97.298244 1.111356 -3.021277 40.383989 0.000001 0.000002 -0.000002 -2.813695 19.600840 14.385647 38.668904 5.445295 -9.643244 -12.953706 29.874851 6.591652 -0.225376 0.119042 -2.522866 -0.000000 -0.000002 -0.000000 15.029449 -14.023800 -3.430709 31.237484 -9.799580 0.542126 -18.813071 -27.245022 1.136834 0.810956 -0.006868 1.023675 0.000000 -0.000003 -0.000000 
-1.216467 96.703217 -0.206978 -24.596614 -5.220971 -3.195902 11.209317 -4.870719 -0.473479 3.545657 -2.400646 -0.151373 0.000000 0.000000 0.000000 3.557023 -2.388380 -0.108336 1.621908 0.619885 -1.221550 -6.707823 0.616421 4.081619 -0.000000 -0.000000 0.000000 0.467434 -15.512265 -10.880581 0.000000 0.000000 0.000000 -20.273859 3.119671 -36.916927 0.000048 -67.186652 0.000041 -41.632892 -11.516130 -7.742030 -22.783300 -14.798037 12.273485 3.121085 10.436137 14.802473 3.239607 44.531679 6.790423 0.000000 0.000002 0.000001 1.966047 -2.898957 26.024720 3.255074 5.245440 -63.621498 0.000000 -0.000001 -0.000001 -0.901163 3.860912 20.811095 2.977358 5.098904 -60.541943 -0.000001 0.000001 0.000001 -6.204285 13.462550 27.760010 3.748886 5.461602 -68.910516 0.000000 -0.000000 0.000002 -10.237953 21.423496 28.810093 0.279212 1.788711 -17.742613 -0.000002 0.000001 -0.000001 0.054410 14.630957 15.046418 0.000000 0.000000 0.000000 -11.904864 -6.587373 61.267323 -0.000031 39.465724 0.000038 -2.208367 -4.161591 24.213827 -20.073111 16.089477 -24.921361 8.794319 -40.952749 -1.386076 -0.196611 -28.823583 -23.185388 0.000000 -0.000000 0.000001 1.092565 -5.215357 38.900325 3.089317 -4.385881 70.307133 0.000005 -0.000000 -0.000001 2.965384 -6.600164 70.564392 0.642074 -2.361643 30.415577 -0.000000 -0.000000 0.000001 5.938353 -7.194003 80.713718 0.323225 -1.706377 21.450624 -0.000001 -0.000001 0.000000 1.923032 -22.482452 97.283586 1.111354 -3.021276 40.383989 0.000001 -0.000002 -0.000002 -4.765013 19.590866 15.902325 41.269523 5.481640 -9.587041 -12.154339 29.818922 6.650523 -0.132199 0.213962 -3.904752 0.000000 0.000002 0.000000 15.151112 -13.737377 -3.110827 31.321489 -9.715242 0.603913 -19.186485 -26.585297 0.877324 0.796033 -0.006607 1.005038 0.000000 0.000002 -0.000000 
